<?xml version="1.0" standalone="no"?>
<!DOCTYPE svg PUBLIC "-//W3C//DTD SVG 20010904//EN"
 "http://www.w3.org/TR/2001/REC-SVG-20010904/DTD/svg10.dtd">
<svg version="1.0" xmlns="http://www.w3.org/2000/svg"
 width="1024.000000pt" height="1024.000000pt" viewBox="0 0 1024.000000 1024.000000"
 preserveAspectRatio="xMidYMid meet">

<g transform="translate(0.000000,1024.000000) scale(0.100000,-0.100000)"
fill="#000000" stroke="none">
<path d="M0 5120 l0 -5120 5120 0 5120 0 0 5120 0 5120 -5120 0 -5120 0 0
-5120z m5142 4701 c-28 -57 -35 -83 -39 -152 -8 -139 22 -198 200 -396 78 -86
108 -129 148 -208 69 -140 89 -216 89 -345 0 -96 -18 -210 -38 -247 -5 -8 -9
21 -10 70 -1 63 -8 107 -32 180 -17 53 -34 98 -38 101 -4 2 -7 -30 -8 -73 -1
-92 -30 -172 -111 -307 -102 -172 -126 -297 -83 -435 26 -85 66 -141 200 -284
120 -127 172 -212 186 -301 6 -43 7 -43 63 -59 31 -8 71 -22 89 -30 18 -8 37
-15 41 -15 5 0 9 38 10 84 2 104 27 191 79 272 48 72 56 80 188 168 120 80
159 125 173 203 15 78 -1 153 -57 262 -71 139 -85 188 -80 280 3 42 11 89 19
104 15 28 15 27 11 -31 -7 -92 24 -148 156 -286 115 -120 160 -186 186 -275
19 -65 21 -173 4 -238 -13 -49 -50 -90 -220 -248 -84 -78 -103 -128 -96 -257
l6 -88 -27 2 c-18 2 -30 12 -39 32 -7 16 -15 26 -18 23 -3 -3 16 -47 42 -97
39 -73 59 -98 94 -123 79 -53 182 -139 283 -234 54 -51 103 -93 108 -93 15 0
77 139 90 201 6 29 9 85 7 124 -4 60 -13 88 -52 170 -26 53 -45 104 -42 112 3
8 1 11 -4 8 -5 -3 -15 5 -22 20 -29 65 44 256 133 345 43 43 149 111 149 95 0
-3 -16 -26 -37 -52 -83 -109 -125 -259 -103 -372 13 -69 13 -71 -5 -71 -8 0
-15 -4 -15 -10 0 -5 -7 -10 -15 -10 -8 0 -15 -4 -15 -9 0 -14 33 -82 61 -126
81 -128 98 -257 56 -415 -14 -52 -34 -115 -45 -140 l-19 -45 25 -32 c13 -18
29 -33 36 -33 6 0 27 28 48 63 100 171 127 256 128 402 l1 90 20 -55 c23 -64
26 -92 35 -345 7 -215 0 -269 -48 -365 l-30 -61 31 -68 c60 -131 97 -243 165
-506 2 -5 6 -31 11 -57 4 -27 10 -48 14 -48 14 0 72 98 85 145 19 66 21 122
12 287 -10 165 5 252 60 344 64 109 131 156 308 214 81 27 107 40 141 75 87
86 94 196 26 384 -48 133 -59 205 -41 293 18 94 56 165 124 234 67 67 132 98
224 106 66 6 67 -4 3 -21 -140 -36 -251 -166 -251 -294 0 -78 21 -137 105
-287 56 -101 75 -145 75 -172 0 -26 -5 -38 -14 -38 -10 0 -12 -15 -8 -68 4
-68 -12 -177 -28 -187 -5 -3 -19 4 -31 16 l-21 21 -34 -50 c-42 -63 -100 -110
-189 -154 -213 -105 -284 -191 -272 -328 4 -36 15 -89 27 -118 45 -118 25
-214 -110 -507 -83 -181 -96 -215 -83 -215 5 0 27 37 48 83 64 133 139 192
304 237 128 36 186 73 224 145 20 36 22 56 23 195 1 133 4 162 21 201 12 26
25 49 29 52 5 3 9 -25 9 -62 1 -74 23 -131 92 -238 54 -82 92 -180 100 -254 5
-53 4 -59 -11 -53 -9 3 -17 14 -17 23 -1 12 -3 11 -6 -4 -10 -39 -71 -121
-119 -162 -27 -22 -101 -66 -165 -97 -177 -86 -211 -140 -207 -326 2 -103 1
-110 -30 -173 -37 -74 -113 -151 -198 -199 -49 -27 -53 -33 -63 -80 -7 -28
-10 -52 -8 -54 2 -2 73 -4 158 -5 126 -1 161 2 194 16 116 50 178 126 220 270
60 208 67 225 109 283 42 57 99 101 204 157 81 44 128 90 162 158 45 92 60
179 60 358 0 166 10 217 56 291 36 57 44 53 18 -10 -43 -104 -33 -188 52 -422
34 -94 38 -115 38 -200 0 -102 -18 -198 -40 -207 -7 -2 -10 -11 -7 -19 3 -8 0
-14 -6 -14 -6 0 -11 -10 -11 -22 0 -13 -4 -18 -8 -13 -10 14 -56 20 -47 6 11
-19 -28 -56 -60 -56 -16 0 -39 -8 -49 -17 -11 -10 -28 -18 -38 -18 -25 0 -94
-65 -125 -117 -45 -77 -65 -144 -65 -217 0 -68 -1 -71 -38 -105 -25 -24 -42
-51 -50 -81 -21 -81 -62 -150 -120 -202 -50 -47 -157 -108 -188 -108 -22 0
-129 -58 -165 -89 -18 -16 -56 -67 -84 -113 -57 -93 -110 -151 -164 -178 -40
-21 -145 -50 -180 -50 -24 0 -24 -1 -24 -120 0 -66 1 -120 3 -120 1 0 26 12
54 26 33 17 114 39 223 61 262 52 294 64 472 176 65 40 156 96 202 123 97 57
211 166 260 247 67 113 108 248 121 397 4 41 7 65 8 52 1 -12 21 -77 44 -145
25 -74 42 -143 43 -177 2 -30 7 -89 13 -132 28 -194 -58 -387 -205 -462 -26
-13 -104 -40 -172 -61 -168 -50 -212 -72 -311 -161 -85 -75 -128 -104 -185
-120 -16 -5 -127 -9 -245 -9 -201 0 -219 -2 -279 -24 -94 -35 -129 -59 -153
-105 -79 -155 -272 -373 -405 -456 -40 -25 -73 -48 -73 -52 -1 -28 147 -67
258 -69 56 -2 79 -5 68 -11 -9 -5 -16 -16 -16 -24 0 -31 -26 -41 -125 -48
-106 -8 -175 -20 -240 -41 -22 -7 -101 -23 -175 -34 -251 -40 -397 -86 -516
-163 -135 -87 -212 -184 -322 -403 -33 -66 -69 -131 -80 -145 l-21 -25 9 40
c5 22 10 119 10 216 0 198 9 241 64 329 47 74 161 170 271 227 l90 47 -85 17
c-118 24 -282 91 -372 151 l-26 18 -51 -57 c-28 -32 -67 -89 -88 -128 -33 -63
-37 -68 -43 -45 -17 63 -97 189 -120 190 -9 0 -45 -22 -81 -48 -55 -40 -276
-150 -353 -176 -17 -6 -10 -13 40 -46 80 -53 155 -130 190 -193 l29 -52 0
-205 c1 -113 4 -223 9 -245 10 -53 -1 -38 -71 100 -153 303 -220 377 -433 478
l-105 50 -85 -12 c-197 -26 -281 -30 -420 -18 -181 15 -424 69 -515 115 -133
65 -270 182 -363 307 -89 120 -162 314 -162 429 0 71 -14 96 -52 96 -41 0
-123 22 -165 43 -17 9 -70 52 -117 96 -99 91 -145 116 -316 166 -69 21 -145
48 -170 60 -98 50 -178 170 -201 300 -14 84 -7 229 16 304 10 30 18 66 20 80
2 15 17 67 34 117 17 51 32 107 32 125 1 19 7 -18 14 -81 17 -153 36 -228 87
-330 59 -119 173 -231 323 -319 61 -35 160 -94 220 -132 115 -71 172 -99 202
-99 17 0 18 9 15 108 -5 126 16 242 54 309 l24 42 -27 19 c-34 23 -62 33 -178
68 -49 14 -107 35 -127 45 -64 32 -141 117 -177 196 -19 41 -39 69 -45 67 -7
-3 -21 6 -33 18 -17 19 -21 41 -26 133 -3 61 -13 133 -21 160 -24 77 -81 151
-184 234 -83 68 -152 147 -152 174 0 6 -3 7 -7 3 -4 -4 -15 8 -25 26 -9 18
-17 27 -18 21 0 -22 -20 -14 -20 8 0 11 -4 18 -9 14 -14 -8 -17 30 -9 135 6
97 25 165 74 280 51 117 35 283 -34 365 l-17 20 25 -20 c38 -31 49 -46 77
-104 27 -57 29 -77 34 -340 4 -234 69 -349 253 -450 154 -84 212 -165 260
-360 14 -57 35 -124 48 -150 29 -60 110 -138 173 -167 52 -24 160 -37 223 -26
28 4 33 8 27 26 -16 58 -54 204 -58 226 -17 94 -26 108 -80 119 -30 6 -32 10
-39 61 -4 30 -5 79 -2 108 5 40 1 66 -16 112 -36 96 -79 136 -223 208 -178 89
-233 155 -253 304 -4 26 -11 45 -15 42 -31 -19 16 85 94 209 70 111 81 143 74
226 -5 60 -4 63 9 41 42 -74 47 -96 54 -250 5 -131 9 -161 28 -196 35 -68 90
-107 194 -139 108 -32 143 -48 180 -82 l27 -25 6 38 c4 22 13 66 20 99 13 57
13 61 -9 90 -70 92 -82 173 -45 300 30 101 33 131 19 193 -18 81 -81 139 -240
222 -77 40 -142 82 -169 108 -24 24 -40 39 -37 33 4 -6 5 -11 2 -11 -3 0 -12
13 -20 28 -12 24 -20 28 -44 24 -27 -4 -31 0 -42 33 -8 23 -11 74 -8 136 3 75
1 94 -7 79 -6 -11 -14 -17 -18 -14 -4 4 -8 -13 -8 -37 -2 -44 -2 -44 -8 -9 -5
24 -3 40 8 53 9 11 10 17 3 17 -7 0 -12 5 -12 11 0 5 4 8 8 5 5 -3 9 7 9 22 0
31 36 109 105 227 63 106 84 190 68 262 -23 104 -118 206 -232 248 -60 23 -61
24 -26 24 52 1 152 -32 196 -65 59 -44 90 -83 130 -163 36 -73 37 -78 37 -185
0 -93 -4 -121 -24 -171 -54 -138 -62 -168 -63 -244 -2 -150 62 -217 267 -279
39 -12 98 -39 131 -60 95 -62 134 -117 183 -265 l27 -79 30 49 c17 27 53 67
80 88 78 63 103 118 95 205 -14 130 16 530 39 530 4 0 10 -33 13 -72 3 -40 12
-95 21 -123 17 -55 75 -157 91 -161 6 -1 29 22 53 52 l42 54 -17 53 c-23 68
-23 226 0 278 13 29 40 69 114 168 2 2 6 1 9 -2 4 -4 -4 -30 -17 -59 -30 -68
-32 -196 -5 -275 10 -29 20 -53 23 -53 3 0 33 24 67 54 71 62 239 180 309 216
53 28 101 67 110 90 4 12 6 11 6 -2 1 -10 3 -18 6 -18 13 0 55 24 55 32 0 5 5
6 10 3 6 -3 10 -5 10 -3 0 2 7 24 15 51 8 26 10 47 5 47 -6 0 -10 -6 -10 -13
0 -8 -7 -28 -16 -45 -13 -27 -19 -31 -42 -26 -35 9 -34 7 -22 38 26 69 0 192
-58 268 -19 26 -66 70 -103 98 -38 27 -76 62 -86 76 -10 14 -30 39 -45 56 -31
35 -44 107 -35 203 12 129 61 215 219 384 114 121 147 179 149 259 l1 37 13
-30 c37 -79 8 -215 -73 -349 -23 -38 -46 -93 -53 -124 -14 -69 -7 -167 14
-209 26 -49 94 -109 177 -158 128 -73 201 -173 235 -319 8 -36 15 -69 14 -73
-1 -4 -1 -20 0 -36 1 -26 2 -27 44 -21 73 12 87 20 87 54 l0 31 23 -26 c20
-23 27 -25 68 -19 73 10 75 15 36 70 -80 113 -102 188 -102 349 1 140 16 210
74 332 51 106 122 211 222 326 100 115 190 247 220 324 20 50 23 76 23 183 1
136 3 129 -95 350 -30 68 -33 84 -34 176 0 98 1 102 42 185 39 77 114 179 132
179 4 0 -8 -31 -27 -69z m823 -318 c373 -130 673 -310 980 -588 132 -119 135
-122 135 -141 0 -8 4 -13 9 -9 9 5 46 -24 39 -31 -2 -2 -23 4 -47 12 -24 8
-46 13 -48 10 -7 -7 17 -47 26 -42 4 3 8 -2 8 -10 0 -10 -9 -6 -28 12 -16 15
-26 32 -22 37 3 6 2 7 -3 4 -5 -3 -63 40 -129 95 -304 253 -661 495 -955 645
-58 30 -96 51 -85 48 11 -4 65 -23 120 -42z m-1680 -26 c-323 -169 -631 -377
-950 -644 -60 -51 -115 -93 -121 -93 -7 0 -14 -9 -17 -21 -5 -19 -6 -19 -25
-3 -22 18 -17 39 21 96 21 31 218 208 317 285 135 105 353 235 513 306 90 39
352 136 372 136 6 0 -44 -28 -110 -62z m78 -467 c18 -11 41 -20 52 -20 26 0 8
-15 -36 -29 -35 -11 -69 -59 -69 -96 0 -8 -4 -15 -10 -15 -5 0 -10 9 -10 20 0
28 -56 88 -90 95 -44 10 -44 20 1 35 51 17 76 49 85 107 l7 47 19 -63 c15 -49
26 -66 51 -81z m1588 48 c11 -26 76 -67 110 -69 8 0 -10 -11 -39 -24 -53 -24
-82 -64 -82 -114 0 -11 -6 -23 -12 -27 -7 -4 -10 -4 -6 0 10 11 -19 87 -44
113 -11 12 -33 25 -49 28 -33 8 -49 25 -22 25 54 0 112 70 114 137 1 26 1 26
10 -7 6 -19 15 -47 20 -62z m-2111 -232 c0 -8 11 -21 25 -30 30 -20 32 -32 5
-39 -11 -3 -25 -18 -31 -34 l-11 -28 -13 32 c-7 17 -23 34 -34 38 -20 6 -20 7
9 32 17 13 30 31 30 39 0 9 5 12 10 9 6 -3 10 -12 10 -19z m2587 -6 c6 -17 22
-34 34 -39 l24 -8 -23 -7 c-12 -4 -29 -18 -38 -31 l-15 -23 -30 30 -30 30 26
24 c14 12 25 30 25 39 0 25 15 17 27 -15z m-3603 -2 c-10 -13 -21 -25 -24 -28
-23 -21 -153 -175 -184 -218 -21 -29 -41 -51 -43 -48 -10 10 68 153 104 190
36 38 149 126 161 126 3 0 -3 -10 -14 -22z m4646 -29 c103 -75 168 -161 195
-259 6 -20 1 -17 -22 15 -29 39 -167 199 -226 263 -43 45 -28 40 53 -19z
m-659 -129 c17 -43 21 -73 19 -140 -4 -188 -3 -199 25 -236 14 -19 51 -50 81
-69 62 -40 69 -50 20 -30 -26 11 -35 12 -38 3 -8 -24 -84 10 -123 55 -20 23
-35 35 -33 27 2 -10 -4 -14 -19 -12 -16 2 -22 -3 -25 -20 -3 -18 -7 -12 -21
26 -26 75 -22 116 24 222 48 113 53 183 19 261 l-20 48 35 -40 c19 -22 44 -65
56 -95z m-3326 77 c-26 -64 -19 -142 21 -232 49 -110 59 -151 45 -200 -6 -22
-18 -49 -27 -60 -8 -11 -13 -15 -10 -9 11 22 -26 24 -55 3 -24 -17 -142 -69
-156 -69 -3 0 -1 5 3 11 13 21 -40 -12 -63 -39 -13 -15 -23 -22 -23 -15 0 19
58 80 106 113 23 17 52 46 64 66 21 34 22 43 16 157 -8 140 2 190 56 268 18
26 34 47 35 45 2 -2 -4 -19 -12 -39z m3616 -74 c13 -16 12 -17 -3 -4 -10 7
-18 15 -18 17 0 8 8 3 21 -13z m110 0 c13 -16 12 -17 -3 -4 -10 7 -18 15 -18
17 0 8 8 3 21 -13z m-2725 -119 c31 -63 42 -156 24 -208 -11 -33 -30 -50 -30
-26 0 6 -19 -8 -42 -29 -24 -22 -59 -50 -78 -63 -19 -13 -45 -43 -57 -68 l-23
-44 0 59 c0 70 16 108 88 218 28 43 54 94 58 113 6 34 1 94 -13 131 -14 39 48
-31 73 -83z m1328 59 c-27 -78 -13 -129 69 -250 62 -90 77 -133 76 -208 -1
-49 -1 -49 -12 -20 -7 17 -18 40 -25 52 -19 33 -131 113 -164 117 -38 5 -44
156 -10 237 16 37 67 109 77 109 1 0 -3 -17 -11 -37z m-3417 -161 c5 -72 -8
-111 -74 -215 -21 -34 -43 -42 -43 -16 0 6 4 8 9 4 5 -3 12 -2 15 3 2 4 -12 9
-32 11 -20 2 -46 4 -57 5 -25 3 -52 -10 -84 -38 l-25 -21 24 35 c13 19 73 99
133 178 75 98 113 140 120 133 5 -5 12 -41 14 -79z m5545 -12 c83 -107 197
-262 221 -300 l16 -26 -69 4 c-59 4 -70 2 -70 -12 0 -34 -27 -13 -79 62 -92
131 -121 194 -121 265 0 68 8 109 20 105 4 -2 41 -46 82 -98z m-922 -313 c0
-6 -13 2 -30 18 -16 16 -30 30 -30 33 0 2 14 -6 30 -18 17 -12 30 -26 30 -33z
m400 -192 c21 -27 55 -81 76 -120 34 -62 38 -78 39 -140 0 -75 -18 -135 -42
-135 -8 0 -12 -4 -8 -9 10 -17 -90 -105 -159 -140 -105 -52 -160 -101 -196
-173 l-31 -63 5 78 c10 134 45 186 161 243 112 56 157 108 175 206 18 92 -33
222 -143 370 l-39 53 61 -60 c34 -33 79 -82 101 -110z m-4476 133 c-5 -7 -29
-46 -55 -86 -85 -130 -113 -243 -84 -340 23 -75 65 -117 160 -161 124 -58 165
-123 165 -259 l0 -47 -19 40 c-28 61 -91 117 -183 162 -136 66 -172 115 -195
268 l-8 50 -3 -42 c-2 -24 -7 -43 -13 -43 -8 0 -15 60 -10 105 2 29 45 117 85
179 48 71 195 232 160 174z m482 -236 c128 -83 199 -205 210 -357 3 -48 1 -64
-5 -50 -5 11 -10 14 -10 7 -1 -10 -13 -12 -48 -6 -27 4 -51 11 -54 17 -4 6 -8
5 -10 -2 -2 -6 -5 23 -6 65 -3 124 -39 217 -125 327 -16 20 -26 37 -20 37 5 0
35 -17 68 -38z m4703 -439 c-1 -16 1 -35 5 -44 4 -10 2 -20 -4 -24 -6 -4 -9
-1 -8 7 2 7 -3 12 -11 10 -11 -2 -12 0 -4 10 12 14 13 17 13 48 0 11 2 20 5
20 3 0 5 -12 4 -27z m-606 -424 c16 -31 31 -46 55 -54 l33 -11 -36 -13 c-30
-10 -42 -23 -60 -65 -24 -50 -24 -51 -24 -18 -1 37 -48 92 -80 92 -9 1 1 10
21 21 41 21 58 45 58 80 0 28 5 23 33 -32z m-4735 -39 c39 -19 40 -26 2 -45
-20 -10 -33 -28 -41 -55 l-12 -41 -20 45 c-13 32 -27 48 -48 55 -36 13 -36 17
2 36 18 10 37 32 46 53 l16 37 11 -35 c8 -23 23 -40 44 -50z m-883 10 c-55
-82 -78 -154 -79 -245 0 -102 23 -156 89 -211 121 -99 144 -134 152 -233 6
-69 -18 -181 -38 -181 -5 0 -9 25 -9 57 0 73 -31 122 -140 222 -74 67 -104
109 -125 175 -5 18 -6 18 -29 -3 -23 -22 -23 -22 -29 -1 -20 75 85 320 179
417 27 29 53 53 56 53 4 0 -8 -22 -27 -50z m6474 -21 c45 -52 128 -210 147
-283 17 -64 17 -172 0 -211 -12 -29 -13 -28 -8 22 2 29 1 60 -2 70 -7 17 -8
17 -19 -2 -6 -11 -10 -21 -9 -22 3 -4 -41 -53 -125 -136 -92 -93 -127 -150
-142 -233 -6 -31 -13 -59 -15 -62 -8 -8 -46 130 -46 168 0 97 53 181 163 258
67 47 90 97 91 197 0 93 -24 169 -80 253 -42 63 -19 53 45 -19z m-6835 -839
c0 -54 -6 -77 -35 -135 l-34 -70 -3 67 c-2 43 4 94 18 146 11 44 20 91 20 104
1 20 3 18 17 -12 10 -21 17 -61 17 -100z m7215 -135 l0 -70 -34 70 c-40 83
-48 141 -27 210 l15 50 23 -95 c13 -52 23 -126 23 -165z m-6648 -277 c-3 -21
-6 -26 -9 -15 -3 17 3 47 11 47 2 0 1 -15 -2 -32z m6016 -140 c-3 -8 -6 -5 -6
6 -1 11 2 17 5 13 3 -3 4 -12 1 -19z m-6607 -1096 c0 -15 -15 -59 -34 -97
l-35 -70 0 53 c-1 70 36 161 60 146 5 -3 9 -17 9 -32z m7232 1 c15 -25 25 -60
28 -100 6 -71 4 -70 -39 11 -29 56 -42 126 -22 126 5 0 20 -17 33 -37z m-6647
-1175 c68 -36 114 -86 175 -195 73 -131 130 -168 258 -165 57 1 79 -8 50 -22
-7 -4 2 -4 20 -1 52 8 37 -3 -37 -25 -142 -42 -249 -19 -349 74 -27 26 -54 46
-60 46 -7 0 -25 14 -42 31 -16 18 -30 28 -30 23 0 -5 -4 -4 -8 1 -20 27 -110
78 -197 111 -28 10 -143 6 -183 -7 -18 -6 -53 -26 -78 -45 l-45 -34 15 28 c24
46 105 131 153 158 72 43 120 54 218 51 74 -3 99 -8 140 -29z m6363 -8 c64
-34 141 -109 176 -171 19 -34 19 -34 0 -18 -55 45 -190 99 -214 84 -4 -3 -28
-6 -54 -6 -25 -1 -46 -6 -46 -10 0 -4 -14 -12 -30 -18 -18 -6 -28 -6 -25 -1 8
13 5 12 -36 -2 -39 -13 -125 -73 -137 -95 -5 -8 -34 -41 -66 -73 -81 -82 -161
-114 -266 -107 -75 6 -168 33 -206 62 -18 13 -16 14 16 9 62 -10 173 -4 227
11 72 21 104 52 154 147 53 104 89 149 141 178 71 40 117 50 213 47 80 -3 97
-7 153 -37z m-5989 -796 c53 -15 102 -62 174 -165 57 -81 94 -114 172 -150 79
-37 164 -50 252 -39 75 10 105 20 273 93 155 68 212 81 370 81 129 1 250 -11
221 -22 -7 -2 26 -24 75 -47 58 -29 105 -60 134 -90 25 -25 37 -43 28 -39 -10
3 -18 10 -18 16 0 5 -4 6 -10 3 -13 -8 14 -61 36 -69 13 -5 15 -2 11 14 -4 16
-2 18 13 10 25 -13 51 -56 44 -74 -5 -13 -13 -11 -47 13 -100 68 -221 102
-360 102 -126 0 -185 -18 -385 -117 -253 -124 -356 -145 -516 -104 -159 40
-282 137 -343 270 -90 195 -104 219 -151 261 -27 24 -69 52 -93 62 l-44 17 59
-6 c32 -3 79 -12 105 -20z m5391 9 c-77 -28 -147 -109 -205 -241 -114 -257
-239 -350 -485 -360 -146 -6 -211 12 -402 109 -75 38 -178 83 -230 100 -83 28
-102 31 -173 26 -84 -6 -216 -37 -269 -64 -17 -8 -55 -33 -83 -54 -29 -22 -53
-36 -53 -32 0 22 64 114 106 153 51 47 130 101 174 119 22 8 22 10 5 11 -38 2
57 29 147 41 113 15 263 7 349 -20 36 -11 108 -41 160 -65 176 -82 307 -106
419 -76 117 31 187 89 290 238 24 34 59 72 78 84 41 25 121 46 177 46 l40 0
-45 -15z m-3883 -219 c-3 -3 -12 -4 -19 -1 -8 3 -5 6 6 6 11 1 17 -2 13 -5z
m-231 -599 c17 -7 62 -47 100 -89 96 -106 138 -122 284 -108 149 14 233 -4
305 -63 19 -16 18 -16 -28 -11 -26 3 -82 -1 -125 -9 -130 -25 -263 -18 -339
18 -12 5 -20 14 -17 19 3 4 -2 8 -10 8 -19 0 -57 36 -60 56 -1 7 -28 43 -60
79 -58 66 -119 105 -165 105 -21 0 -23 2 -11 10 17 12 80 4 126 -15z m2862 17
c8 -6 -7 -13 -44 -21 -60 -14 -68 -21 -230 -193 -50 -54 -71 -68 -124 -86 -79
-27 -145 -28 -241 -2 -87 23 -120 24 -173 5 l-40 -14 35 34 c49 50 137 79 214
71 193 -19 200 -19 248 2 26 11 66 42 89 68 91 101 117 123 160 132 56 13 90
14 106 4z"/>
<path d="M4777 7349 c-637 -111 -1066 -353 -1397 -788 -44 -58 -95 -140 -116
-185 -30 -67 -45 -87 -85 -116 -115 -82 -216 -254 -249 -425 -11 -55 -31 -157
-44 -226 -55 -281 -75 -736 -40 -920 30 -159 90 -249 166 -249 15 0 29 -3 32
-8 2 -4 -14 -46 -36 -94 -31 -68 -46 -88 -65 -93 -38 -9 -129 -106 -157 -167
-76 -160 -76 -381 0 -529 22 -44 23 -50 10 -87 -53 -150 1 -396 127 -582 47
-68 145 -168 211 -212 90 -62 193 -105 343 -145 l138 -36 225 -1 c195 0 240 3
337 22 173 35 499 153 581 210 15 11 44 25 65 33 21 7 47 21 57 31 11 10 42
32 71 48 59 35 135 97 190 154 l37 40 41 -37 c112 -101 357 -231 506 -269 79
-20 115 -23 285 -23 217 1 247 6 397 75 128 59 220 124 324 229 135 136 207
255 269 446 34 103 36 133 28 408 0 17 7 59 16 92 9 33 19 105 23 160 6 96 8
102 50 168 103 159 143 320 143 579 0 226 -44 406 -132 544 -28 44 -32 59 -35
139 -10 241 -190 710 -363 949 -36 48 -76 105 -89 125 -37 56 -277 290 -366
356 -263 197 -464 284 -853 371 -167 37 -473 43 -645 13z m173 -130 c-25 -6
-106 -21 -180 -35 -74 -15 -202 -49 -285 -76 -142 -47 -395 -160 -395 -177 0
-8 44 -31 60 -31 6 0 31 16 57 36 81 62 241 130 348 149 52 9 41 -1 -70 -59
-49 -27 -94 -53 -100 -58 -7 -8 -6 -9 3 -4 7 5 23 9 35 11 12 1 69 19 127 38
105 36 231 69 238 63 2 -2 -21 -12 -50 -21 -50 -16 -201 -95 -195 -102 2 -1
62 15 133 36 185 56 204 60 204 51 0 -8 -152 -70 -171 -70 -15 0 -10 -17 6
-24 8 -3 21 -3 29 0 8 3 17 1 21 -5 4 -7 0 -8 -11 -4 -17 6 -17 5 -1 -17 22
-32 21 -88 -2 -124 -18 -27 -96 -86 -115 -86 -5 0 -51 -21 -103 -47 -79 -40
-91 -49 -71 -54 22 -5 22 -6 -10 -22 -57 -31 -192 -68 -192 -54 0 14 53 133
69 156 22 30 27 46 13 37 -5 -3 -26 -1 -47 5 -20 6 -49 8 -62 4 -25 -6 -25 -8
-18 -70 7 -72 -1 -81 -40 -45 l-22 20 -44 -31 c-24 -17 -61 -48 -83 -68 l-39
-36 7 30 c4 17 18 53 31 80 l24 50 -25 -28 c-13 -15 -24 -25 -24 -22 0 12 23
50 43 73 73 80 -134 -78 -257 -197 l-69 -66 43 65 c24 36 87 109 139 163 53
53 93 97 88 97 -16 0 -73 -34 -132 -78 l-59 -45 37 44 c47 55 141 134 179 150
23 9 28 18 28 45 0 19 -3 34 -7 34 -36 0 -270 -169 -372 -269 -71 -70 -231
-246 -269 -296 -21 -27 -20 -25 4 25 54 110 224 306 361 417 122 98 167 129
268 183 159 85 220 113 329 151 186 66 314 95 466 106 47 3 87 7 89 9 2 2 23
4 45 3 l41 -1 -45 -9z m462 -20 c178 -35 379 -100 503 -161 170 -85 371 -232
510 -373 114 -116 264 -320 327 -445 34 -68 121 -300 115 -306 -6 -6 -108 156
-112 176 -2 13 -15 39 -29 59 -13 20 -42 68 -65 106 -22 39 -59 93 -81 120
-21 28 -58 77 -82 110 -83 119 -280 298 -473 431 -139 95 -407 215 -603 269
-93 25 -97 32 -10 14z m-1431 -646 c-12 -20 -14 -14 -5 12 4 9 9 14 11 11 3
-2 0 -13 -6 -23z m429 -236 c14 -3 48 -8 75 -12 58 -7 56 -7 200 -40 229 -54
311 -85 477 -184 93 -56 128 -85 180 -151 63 -80 111 -200 122 -308 7 -68 -9
-59 -18 10 -28 222 -198 423 -414 490 -76 23 -93 18 -25 -7 85 -31 68 -34 -27
-4 -123 38 -300 82 -307 76 -2 -3 22 -11 54 -17 97 -20 383 -132 383 -151 0
-4 -28 5 -62 21 -51 23 -249 89 -318 105 -8 2 -31 9 -50 14 -42 13 -74 14 -45
1 15 -6 16 -9 4 -9 -9 -1 -19 2 -23 6 -8 8 -38 13 -83 13 -18 0 -33 5 -33 10
0 5 -8 9 -17 10 -469 23 -576 22 -833 -11 -237 -30 -391 -71 -486 -130 -32
-19 -40 -22 -24 -8 22 19 60 39 175 89 22 10 26 14 13 17 -9 2 -52 -12 -95
-32 l-78 -36 38 39 c88 90 316 172 552 199 28 3 52 7 55 10 7 6 580 -3 610
-10z m2105 -198 c91 -25 181 -85 232 -155 35 -51 43 -75 16 -53 -9 8 -18 13
-20 12 -10 -8 -20 1 -42 33 -27 39 -97 92 -151 112 -19 8 -51 20 -70 27 -54
22 -202 19 -296 -6 -129 -33 -255 -132 -362 -283 -58 -83 -82 -87 -42 -7 13
25 27 54 32 64 21 41 -5 27 -59 -33 -31 -34 -59 -58 -61 -52 -7 23 62 136 123
201 48 50 87 80 144 110 93 48 109 52 55 12 -21 -16 -52 -43 -69 -60 l-30 -32
85 40 c86 41 174 68 265 81 62 9 197 3 250 -11z m-2235 -41 c47 -5 96 -11 110
-11 22 -2 25 -6 22 -33 -3 -31 -2 -31 48 -38 27 -4 50 -10 50 -15 0 -23 -111
-355 -306 -913 -48 -137 -72 -180 -41 -71 10 32 40 137 67 233 28 96 53 182
55 190 3 9 -1 7 -10 -4 -8 -11 -15 -24 -15 -30 0 -15 -53 -147 -57 -143 -2 2
4 23 12 47 8 23 15 54 14 69 0 24 -45 -95 -106 -284 l-25 -80 -57 63 c-67 75
-88 82 -34 12 21 -27 46 -61 57 -76 14 -20 20 -23 27 -13 10 16 11 1 1 -22 -5
-12 -32 11 -112 98 -58 62 -105 118 -105 125 0 14 -136 119 -150 115 -5 -2
-14 -18 -19 -35 -10 -36 -21 -39 -74 -16 -24 10 -68 16 -129 16 -85 0 -109 7
-83 23 6 3 10 13 10 21 0 19 -21 13 -102 -27 -32 -15 -58 -24 -58 -19 0 15 72
59 126 79 31 10 50 24 52 35 3 16 0 18 -25 12 -54 -14 -131 -54 -146 -78 -9
-12 -24 -50 -35 -83 -28 -83 -68 -158 -87 -161 -8 -1 -15 2 -15 7 0 22 32 219
44 272 18 76 2 60 -18 -18 l-15 -60 4 55 c5 53 4 54 -9 25 -23 -48 -19 -3 5
57 11 29 25 80 30 113 6 33 21 94 34 136 13 42 35 125 50 185 14 60 31 121 36
136 12 30 49 45 49 20 0 -12 4 -9 13 7 8 18 27 29 62 38 65 17 65 17 65 -8 0
-19 3 -20 53 -13 28 4 61 8 71 9 11 1 24 11 29 23 5 11 15 23 22 26 7 2 74 8
150 12 l138 7 -7 -27 -6 -26 89 0 89 0 11 31 c10 28 14 31 38 24 16 -3 66 -11
113 -17z m1955 -47 c-81 -24 -179 -77 -232 -127 -33 -32 -43 -48 -44 -75 -2
-65 -1 -64 -43 -62 -22 2 -40 4 -42 5 -1 2 8 23 19 48 43 91 165 178 299 214
76 21 115 18 43 -3z m252 -53 c-3 -8 -6 -5 -6 6 -1 11 2 17 5 13 3 -3 4 -12 1
-19z m-3297 -67 c0 -10 -7 -38 -15 -62 -17 -48 -49 -175 -64 -254 -22 -121
-63 -290 -71 -295 -4 -3 -15 -39 -24 -80 -9 -41 -20 -93 -26 -115 -5 -22 -10
-92 -10 -155 -1 -89 -4 -109 -12 -90 -12 29 -15 386 -4 475 23 189 82 423 124
495 26 46 77 100 93 100 5 0 9 -8 9 -19z m2910 -6 c10 -12 9 -15 -4 -15 -9 0
-21 -11 -26 -24 -13 -36 -44 -50 -64 -30 -21 20 -20 37 2 56 34 30 73 36 92
13z m571 -8 c-13 -13 -26 -3 -16 12 3 6 11 8 17 5 6 -4 6 -10 -1 -17z m133
-33 c3 -8 2 -12 -4 -9 -6 3 -10 10 -10 16 0 14 7 11 14 -7z m-1433 -121 c31
-80 37 -253 15 -383 -52 -297 -190 -506 -406 -615 -62 -31 -196 -75 -230 -75
-15 0 -46 -7 -68 -14 -56 -20 -263 -26 -389 -12 -56 6 -99 8 -97 4 3 -5 15 -8
27 -9 12 0 47 -9 77 -19 l55 -20 -58 5 c-32 3 -56 2 -53 -3 2 -4 -12 -7 -32
-5 -32 2 -34 1 -12 -6 54 -19 -10 -10 -71 10 -149 48 -234 113 -366 277 -155
192 -192 222 -281 222 -80 0 -137 -45 -194 -155 -43 -84 -59 -106 -70 -99 -6
4 -6 10 1 17 6 6 11 16 11 22 -1 10 -24 -17 -41 -47 -8 -14 -6 -16 7 -11 15 5
15 3 0 -24 -16 -32 -80 -103 -93 -103 -4 0 5 12 18 28 14 15 33 41 43 57 10
17 -5 5 -34 -28 -58 -64 -95 -87 -137 -86 -26 0 -25 2 12 15 22 8 52 27 68 42
37 35 133 179 177 266 43 83 107 157 157 181 23 11 59 18 95 17 99 0 168 -48
275 -189 184 -244 295 -309 562 -332 221 -18 456 20 628 103 217 105 360 332
404 644 16 113 7 262 -19 330 -11 28 -16 52 -12 52 5 0 19 -26 31 -57z m1261
23 c106 -28 219 -89 199 -109 -7 -7 -15 -6 -28 5 -45 40 -159 84 -263 104
l-65 12 52 1 c29 0 76 -5 105 -13z m-185 -2 c-3 -3 -12 -4 -19 -1 -8 3 -5 6 6
6 11 1 17 -2 13 -5z m-907 -14 c0 -5 -5 -10 -11 -10 -5 0 -7 5 -4 10 3 6 8 10
11 10 2 0 4 -4 4 -10z m785 -43 c-32 -24 -101 -88 -73 -67 9 6 21 9 26 6 6 -3
35 5 66 19 76 34 92 31 31 -4 -27 -16 -69 -46 -93 -66 -33 -29 -40 -40 -31
-51 8 -10 3 -23 -24 -56 -75 -92 -132 -218 -162 -358 -8 -36 -19 -78 -24 -95
-8 -26 -10 -22 -9 30 0 33 3 64 6 69 8 14 9 56 1 56 -25 0 -44 -292 -26 -385
5 -27 5 -35 -2 -25 -6 8 -16 55 -23 105 l-13 90 -5 -60 -5 -60 -18 50 -17 50
4 -47 c5 -68 -11 -60 -20 9 -11 93 2 209 41 342 69 241 182 394 331 451 65 24
75 24 39 -3z m5 -27 c-35 -24 -54 -31 -30 -11 14 11 30 21 35 21 6 0 3 -5 -5
-10z m652 -154 c14 -25 -1 -16 -62 41 -27 25 -47 50 -44 55 7 10 88 -64 106
-96z m-680 43 c-18 -16 -38 -27 -43 -23 -12 7 -1 21 21 26 8 2 21 9 28 16 7 6
16 12 20 12 4 0 -8 -14 -26 -31z m170 -82 c-29 -29 -52 -56 -52 -60 0 -4 26
10 58 32 49 33 112 62 131 61 3 -1 -12 -10 -33 -21 -43 -23 -126 -102 -146
-139 -10 -18 -1 -14 36 17 27 23 69 51 94 62 l45 22 -38 -32 c-42 -35 -120
-139 -138 -185 -6 -16 -13 -42 -15 -58 -2 -16 -11 -40 -20 -53 -21 -32 -43
-144 -44 -218 -2 -88 -20 -35 -21 61 -1 74 -12 102 -24 64 -3 -11 -10 -20 -15
-20 -5 0 -14 -26 -20 -57 -7 -32 -15 -62 -17 -67 -13 -20 -23 25 -24 104 l-1
85 -13 -50 c-7 -27 -14 -69 -14 -92 -1 -23 -6 -45 -12 -49 -9 -5 -10 26 -7
117 4 96 12 142 32 204 42 132 140 251 251 304 62 31 63 25 7 -32z m426 -7
c51 -37 134 -145 172 -225 57 -119 75 -206 74 -355 -1 -119 -4 -145 -28 -220
-40 -123 -81 -194 -145 -251 -60 -54 -145 -99 -183 -98 l-23 0 23 11 c13 6 21
17 18 25 -3 7 -2 12 2 12 4 -1 14 -1 22 0 13 1 13 3 1 10 -9 6 -22 6 -32 0
-10 -5 -30 -9 -46 -8 -24 0 -22 3 17 16 25 9 56 25 70 35 45 34 140 131 140
143 0 7 9 20 19 29 11 10 23 31 26 47 4 16 10 29 13 29 4 0 8 12 9 28 0 15 2
38 3 52 1 14 1 32 -1 40 -1 8 -1 50 -1 92 2 68 4 77 19 71 13 -5 15 -2 11 15
-4 12 -3 22 2 22 10 0 -4 76 -17 92 -15 19 -23 59 -11 52 17 -11 0 33 -62 163
-51 105 -66 127 -110 162 -59 47 -44 56 18 11z m-1095 -2 c35 -18 46 -40 47
-88 l0 -45 -22 44 c-37 75 -107 85 -170 24 -54 -52 -45 -136 20 -176 20 -12
23 -17 10 -17 -10 0 -18 -8 -18 -17 0 -15 2 -16 10 -3 5 8 10 10 10 4 0 -17
-45 -44 -73 -44 -31 0 -49 -22 -53 -63 -1 -18 -9 -48 -18 -68 -16 -37 -10 -85
13 -113 8 -9 7 -13 -4 -13 -8 0 -12 4 -9 9 3 4 -2 11 -10 14 -23 9 -20 65 9
196 70 308 72 314 130 349 34 21 96 25 128 7z m-59 -64 c28 -11 17 -39 -26
-72 -45 -35 -60 -31 -60 13 0 47 42 76 86 59z m70 -159 c-6 -16 -24 -21 -24
-7 0 11 11 22 21 22 5 0 6 -7 3 -15z m1225 -80 c0 -5 -6 1 -14 15 -8 14 -14
30 -14 35 0 6 6 -1 14 -15 8 -14 14 -29 14 -35z m-3035 -186 c-2 -3 13 -26 33
-50 34 -41 32 -40 -21 11 -81 76 -156 168 -156 188 1 11 29 -13 74 -63 41 -44
72 -83 70 -86z m-105 42 c23 -27 41 -52 41 -57 0 -11 -79 66 -91 89 -19 34 10
16 50 -32z m1743 17 c-7 -7 -12 -19 -12 -27 0 -23 -12 -37 -37 -45 -20 -6 -23
-4 -23 20 0 35 26 64 59 64 19 0 22 -3 13 -12z m-1498 -162 c-3 -15 -8 -25
-11 -23 -2 3 -1 17 3 31 3 15 8 25 11 23 2 -3 1 -17 -3 -31z m-543 -41 c21
-15 39 -31 39 -36 0 -20 -23 -18 -51 5 -32 27 -101 37 -114 16 -3 -6 4 -10 18
-10 29 0 67 -28 99 -73 l23 -32 -35 27 c-19 15 -47 31 -62 37 l-27 10 34 -45
c19 -25 35 -53 35 -62 0 -13 -2 -13 -14 3 -8 11 -12 24 -9 29 4 5 1 6 -5 2 -6
-4 -9 -13 -5 -22 12 -31 -99 -204 -131 -204 -5 0 -27 -12 -49 -27 -62 -43 -68
-39 -40 29 13 33 22 62 20 64 -2 2 -30 -43 -62 -101 -33 -57 -61 -102 -63
-100 -6 6 129 378 151 415 68 117 151 142 248 75z m2346 -17 c-3 -8 -6 -5 -6
6 -1 11 2 17 5 13 3 -3 4 -12 1 -19z m-2873 -163 c-4 -8 -11 -15 -16 -15 -5 0
-23 -9 -38 -20 -18 -13 -31 -16 -35 -10 -3 5 0 10 7 10 8 0 29 11 48 25 42 29
41 29 34 10z m2206 -147 c-5 -18 -14 -60 -20 -92 -8 -40 -15 -55 -20 -45 -10
18 4 99 25 139 20 39 25 38 15 -2z m346 -69 c31 -29 25 -34 -19 -13 -48 23
-106 7 -140 -39 -32 -43 -38 -74 -23 -119 16 -45 12 -49 -9 -8 -34 66 -7 160
56 193 43 23 102 17 135 -14z m1435 -43 c-110 -223 -337 -345 -541 -291 -62
16 -167 84 -225 146 -32 34 -28 32 22 -12 90 -80 147 -108 228 -113 80 -5 104
0 79 19 -15 10 -7 13 47 20 53 7 59 9 34 14 -28 6 -27 7 26 23 57 16 175 79
215 115 11 10 29 23 40 29 10 6 37 36 58 67 22 31 42 55 44 52 3 -2 -9 -34
-27 -69z m-1483 -8 c19 -19 14 -36 -18 -55 -24 -14 -30 -23 -25 -40 4 -18 1
-23 -14 -23 -22 0 -36 16 -45 51 -12 54 64 105 102 67z m663 -65 c13 -16 12
-17 -3 -4 -10 7 -18 15 -18 17 0 8 8 3 21 -13z m-1020 -135 c40 -139 46 -191
10 -92 -36 102 -51 130 -60 115 -4 -6 -22 -16 -40 -21 -33 -9 -33 -9 -16 10
16 18 16 19 -11 15 -16 -2 -65 -17 -109 -33 -103 -37 -135 -45 -135 -32 0 5
18 19 41 30 67 35 263 110 278 107 9 -1 25 -39 42 -99z m-1787 58 c52 -30 113
-112 126 -170 11 -49 0 -53 -25 -9 -11 21 -27 38 -36 38 -8 0 -42 28 -75 61
-38 38 -79 68 -108 79 -64 24 -59 38 12 33 40 -3 73 -13 106 -32z m-170 -20
c38 -16 111 -79 128 -110 11 -20 10 -20 -16 -3 -33 22 -33 19 4 -47 17 -30 32
-70 34 -90 1 -20 1 -36 0 -36 -1 0 -17 26 -34 57 -66 116 -181 203 -268 203
-31 0 -22 11 21 27 44 16 91 16 131 -1z m1384 -62 c-27 -13 -48 -26 -48 -29 0
-2 30 5 67 15 37 10 69 17 71 15 2 -1 -26 -16 -62 -33 l-65 -30 25 -72 c25
-74 31 -106 14 -80 -7 12 -10 11 -16 -5 -5 -11 -3 -20 3 -22 6 -2 9 -12 6 -23
-3 -10 0 -42 6 -71 6 -28 10 -54 8 -56 -3 -2 -15 25 -27 59 -13 35 -38 104
-57 155 -32 88 -33 94 -19 128 11 26 12 35 3 36 -15 1 102 36 123 37 8 1 -6
-10 -32 -24z m-1472 -23 c64 -29 155 -149 140 -187 -8 -22 -23 -17 -46 15 -11
16 -39 44 -63 63 -23 18 -36 25 -28 15 7 -9 9 -17 3 -17 -12 0 -34 25 -27 32
8 8 -84 30 -95 23 -6 -4 -20 -8 -32 -10 -40 -8 -93 -55 -128 -112 -19 -32 -34
-61 -32 -66 1 -5 -2 -6 -8 -2 -5 3 -10 -1 -10 -10 0 -9 4 -13 10 -10 6 3 7 -1
4 -9 -3 -9 -10 -14 -15 -11 -4 3 -10 -23 -12 -57 -2 -35 -3 -20 -3 32 2 79 6
104 27 150 35 75 79 123 141 154 61 31 117 33 174 7z m3754 -149 c-25 -144
-141 -364 -241 -458 -58 -54 -137 -105 -144 -93 -4 5 -2 9 3 9 10 0 37 22 105
87 75 72 59 79 -36 17 -50 -33 -103 -51 -114 -40 -4 3 4 6 16 6 14 0 20 4 15
12 -5 8 -2 9 10 5 11 -4 24 2 38 18 12 14 27 25 33 25 14 0 116 113 167 185
73 103 142 271 150 365 1 14 3 3 5 -25 3 -27 -1 -78 -7 -113z m-2083 -87 c-2
-5 -16 28 -32 73 -16 45 -33 82 -38 82 -5 0 -6 -10 -3 -22 4 -13 9 -36 12 -53
l6 -30 -27 35 c-17 22 -25 28 -22 15 28 -97 19 -98 -17 -1 -29 76 -27 83 27
102 l32 11 32 -101 c18 -55 31 -105 30 -111z m1981 113 c-42 -80 -100 -139
-175 -176 -66 -33 -153 -49 -153 -28 0 7 -10 18 -22 24 -22 10 -22 11 -2 11
29 1 136 39 149 52 7 8 2 10 -17 7 -16 -3 -29 0 -32 8 -3 8 8 15 34 19 63 11
153 59 200 108 25 25 46 44 48 42 2 -2 -11 -32 -30 -67z m-2310 -25 c-2 -10
-19 -26 -38 -35 -19 -10 -111 -55 -205 -102 -200 -99 -325 -164 -344 -179 -7
-6 -17 -22 -22 -36 -15 -38 -30 -12 -19 31 15 51 55 82 208 155 136 66 401
182 415 183 5 0 7 -8 5 -17z m2318 -58 c-29 -64 -73 -131 -116 -173 -36 -36
-149 -107 -157 -98 -3 3 3 9 13 12 23 8 54 34 54 45 0 4 -8 6 -17 4 -10 -2
-18 -4 -18 -5 0 -1 -14 -3 -31 -5 -27 -2 -31 1 -26 17 4 15 7 17 13 6 5 -7 9
-8 9 -3 0 6 28 24 62 40 67 32 174 125 209 181 30 50 32 42 5 -21z m-3715 12
c38 -24 89 -115 89 -156 0 -21 -5 -16 -24 25 -46 98 -123 124 -184 61 -17 -18
-34 -47 -38 -65 -4 -17 -10 -29 -15 -27 -7 5 -7 17 7 79 8 38 77 106 108 106
12 0 38 -10 57 -23z m1049 3 c0 -5 -7 -10 -15 -10 -35 0 -187 -81 -234 -125
-53 -50 -77 -91 -91 -158 -9 -40 -9 -40 -6 15 11 154 126 259 311 281 17 2 31
5 33 6 1 0 2 -3 2 -9z m1080 -10 c-8 -5 -22 -9 -30 -9 -10 0 -8 3 5 9 27 12
43 12 25 0z m555 -86 c18 -8 43 -27 56 -41 l24 -27 -29 22 c-34 26 -103 29
-146 7 -37 -19 -69 -72 -76 -127 -6 -44 -5 -47 53 -188 18 -42 -51 56 -73 105
-21 46 -25 68 -22 111 10 116 115 185 213 138z m-525 -72 c0 -46 46 -196 85
-277 25 -51 69 -120 102 -159 32 -38 65 -78 73 -90 21 -30 -78 61 -119 109
-18 22 -37 40 -41 40 -5 0 -12 4 -17 9 -5 5 -2 6 6 1 9 -5 12 -3 9 6 -3 8 -10
14 -15 14 -6 0 -15 4 -20 9 -5 5 -3 6 5 2 15 -9 15 -1 1 25 -5 11 -14 17 -18
14 -5 -2 -8 1 -8 8 1 6 -11 49 -25 94 -31 94 -47 213 -29 213 6 0 11 -8 11
-18z m-442 -47 c-8 -8 -151 -55 -155 -51 -2 2 29 15 69 29 74 26 95 31 86 22z
m1672 -25 c0 -5 -2 -10 -4 -10 -3 0 -8 5 -11 10 -3 6 -1 10 4 10 6 0 11 -4 11
-10z m-706 -15 c-29 -20 -54 -75 -54 -122 -1 -38 -1 -38 -15 -13 -24 42 -19
88 14 121 16 16 40 29 52 29 l23 0 -20 -15z m65 -24 c11 -7 7 -17 -24 -50 -21
-22 -42 -38 -47 -35 -17 11 -8 63 14 78 26 18 37 19 57 7z m1050 -98 c-19
-102 -82 -236 -161 -345 -58 -79 -193 -202 -271 -246 -110 -61 -267 -102 -396
-102 -77 0 -55 12 26 16 63 2 125 20 235 68 58 25 53 35 -10 20 -31 -8 -73
-13 -92 -13 -32 0 -33 1 -12 10 13 5 28 7 33 3 5 -3 9 -1 9 5 0 6 17 15 38 22
21 6 54 25 73 42 21 19 27 27 14 23 -118 -44 -314 -61 -435 -37 -59 12 -183
51 -178 56 2 2 43 -8 93 -21 77 -20 107 -23 215 -20 130 4 179 15 302 69 88
39 234 144 286 205 26 30 67 75 92 101 25 25 65 81 90 123 24 42 47 75 51 73
3 -3 3 -26 -2 -52z m-899 -164 c-7 -15 -21 -36 -32 -46 -20 -17 -20 -17 1 25
12 24 25 67 29 95 l7 52 3 -49 c2 -27 -2 -61 -8 -77z m-2882 95 c34 -10 26
-19 -20 -21 -23 -2 -44 -6 -47 -11 -3 -4 -28 -16 -55 -26 -26 -10 -63 -32 -82
-48 -29 -26 -34 -27 -34 -11 0 63 155 139 238 117z m192 -88 c0 -5 -13 3 -30
19 -16 16 -30 30 -30 32 0 2 14 -6 30 -19 17 -12 30 -26 30 -32z m-195 -8
c-11 -6 -23 -15 -26 -20 -3 -6 -10 -10 -15 -10 -36 -2 -143 -59 -170 -91 -27
-32 -32 -21 -9 23 30 58 124 108 205 109 31 0 33 -1 15 -11z m215 -68 c0 -15
-5 -12 -26 11 -19 22 -19 22 4 10 12 -6 22 -16 22 -21z m1528 14 c16 -11 20
-20 13 -32 -4 -9 -6 -23 -4 -30 3 -8 -18 3 -47 24 -37 27 -48 39 -38 45 20 13
51 11 76 -7z m-1734 -43 c-11 -10 -30 -21 -40 -25 -11 -3 -43 -21 -70 -38 -27
-18 -52 -32 -56 -33 -4 0 -14 -9 -22 -20 -19 -25 -20 -12 -2 23 32 62 110 111
175 112 35 0 35 0 15 -19z m230 -7 c10 -25 -1 -29 -14 -5 -6 12 -7 21 -1 21 5
0 12 -7 15 -16z m1415 -23 c13 -9 31 -28 40 -41 8 -14 11 -22 7 -18 -5 4 -17
3 -27 -3 -15 -8 -29 -2 -69 28 -46 34 -49 39 -33 50 19 15 47 9 82 -16z
m-1600 -60 c-49 -19 -127 -69 -148 -95 -19 -23 -32 -20 -27 7 10 58 86 106
166 106 l55 0 -46 -18z m1508 -17 c31 -26 43 -54 19 -46 -5 2 -6 -4 -2 -13 5
-13 2 -14 -15 -4 -15 8 -19 8 -15 0 16 -25 -12 -8 -48 28 -43 44 -43 71 -1 67
14 -2 42 -16 62 -32z m-1437 -34 c0 -5 -6 -10 -13 -10 -7 0 -47 -31 -88 -70
-41 -38 -77 -70 -81 -70 -13 0 12 52 43 91 21 27 45 43 77 53 58 18 62 18 62
6z m1349 -55 c35 -49 38 -57 16 -49 -9 4 -15 0 -15 -7 -1 -9 -4 -8 -11 4 -5 9
-15 17 -21 17 -7 0 -6 -6 2 -15 7 -9 11 -18 8 -21 -6 -6 -58 58 -78 95 -10 19
-10 25 0 31 23 14 67 -10 99 -55z m-1309 -21 c-22 -20 -49 -51 -61 -70 -11
-19 -25 -34 -30 -34 -6 0 -7 5 -4 10 3 6 4 10 0 10 -3 0 -14 -15 -25 -32 -28
-46 -26 -10 2 39 40 71 91 113 136 113 20 0 18 -4 -18 -36z m1184 -21 c37 -58
39 -80 6 -63 -16 9 -18 8 -13 -6 14 -38 -23 -5 -53 47 -23 39 -29 58 -22 67
22 25 47 12 82 -45z m-1054 14 c0 -1 -27 -31 -60 -65 -33 -35 -60 -71 -61 -80
0 -11 -2 -12 -6 -4 -2 6 -9 10 -14 6 -14 -8 -11 14 7 52 21 45 79 94 109 94
14 0 25 -1 25 -3z m928 -44 c23 -47 23 -86 1 -91 -22 -4 -81 102 -66 117 21
21 47 11 65 -26z m-836 11 c4 -3 -8 -29 -25 -57 -17 -29 -39 -65 -49 -82 -15
-25 -18 -27 -19 -10 0 16 -3 14 -14 -10 l-14 -30 0 35 c-1 79 86 189 121 154z
m718 -46 c21 -47 28 -125 9 -98 -8 11 -9 8 -4 -15 6 -29 5 -28 -23 11 -41 56
-61 122 -41 135 26 17 40 9 59 -33z m-602 7 c1 -1 -9 -22 -22 -46 -13 -24 -29
-62 -36 -84 -11 -34 -14 -37 -21 -20 -6 17 -8 17 -8 3 -1 -26 -20 -22 -27 6
-6 26 25 107 53 138 14 15 44 17 61 3z m475 -8 c3 -8 8 -45 12 -83 l8 -69 -22
19 c-21 19 -21 19 -21 0 -1 -18 -1 -18 -14 -1 -15 20 -31 121 -21 137 9 15 52
12 58 -3z m-758 -28 c-9 -17 -19 -29 -22 -26 -5 5 25 57 33 57 3 0 -3 -14 -11
-31z m391 -3 c-25 -85 -36 -134 -36 -156 0 -20 -2 -22 -10 -10 -5 8 -10 27
-10 43 0 15 -4 27 -10 27 -5 0 -10 -9 -10 -20 0 -30 -15 -24 -18 6 -3 39 15
97 37 121 26 28 66 20 57 -11z m125 4 c-2 -8 -6 -37 -8 -65 -6 -69 -11 -81
-25 -67 -18 18 -28 14 -28 -9 0 -11 -4 -17 -10 -14 -15 9 -12 101 5 141 12 30
19 35 42 32 19 -2 27 -8 24 -18z m120 -37 c0 -32 2 -68 5 -80 5 -32 -4 -29
-17 5 l-11 27 -16 -30 -16 -30 -9 35 c-17 65 5 130 44 130 16 0 19 -8 20 -57z
m669 -158 c0 -8 -4 -15 -9 -15 -5 0 -14 7 -21 15 -10 13 -9 15 9 15 12 0 21
-6 21 -15z m-123 -67 c-3 -8 -6 -5 -6 6 -1 11 2 17 5 13 3 -3 4 -12 1 -19z"/>
<path d="M4353 6808 c-18 -9 -20 -14 -11 -34 15 -32 21 -30 41 11 18 38 11 43
-30 23z"/>
<path d="M3733 5345 c-3 -9 -4 -17 -2 -19 2 -2 38 -27 79 -56 41 -30 94 -74
118 -99 55 -58 44 -36 -24 50 -46 57 -138 139 -158 139 -4 0 -9 -7 -13 -15z"/>
<path d="M3691 5040 c39 -82 234 -288 303 -321 23 -11 33 -14 22 -7 -67 46
-121 97 -191 183 -107 131 -150 178 -134 145z"/>
<path d="M7061 5114 c0 -11 3 -14 6 -6 3 7 2 16 -1 19 -3 4 -6 -2 -5 -13z"/>
<path d="M5150 4250 c-12 -8 -10 -10 8 -10 13 0 20 4 17 10 -7 12 -6 12 -25 0z"/>
<path d="M4867 3349 c7 -7 15 -10 18 -7 3 3 -2 9 -12 12 -14 6 -15 5 -6 -5z"/>
</g>
</svg>
